<?xml version="1.0" standalone="no"?>
<!DOCTYPE svg PUBLIC "-//W3C//DTD SVG 20010904//EN"
 "http://www.w3.org/TR/2001/REC-SVG-20010904/DTD/svg10.dtd">
<svg version="1.0" xmlns="http://www.w3.org/2000/svg"
 width="990.000000pt" height="947.000000pt" viewBox="0 0 990.000000 947.000000"
 preserveAspectRatio="xMidYMid meet">

<g transform="translate(0.000000,947.000000) scale(0.100000,-0.100000)"
fill="#000000" stroke="none">
<path d="M3080 5307 c-200 -83 -560 -399 -710 -622 -74 -110 -102 -180 -108
-261 -6 -99 25 -155 108 -191 48 -20 190 -43 272 -43 110 0 86 17 -35 23 -174
10 -264 44 -293 113 -63 151 102 420 427 698 187 160 351 266 411 266 93 0 41
-199 -177 -665 -286 -614 -342 -773 -301 -853 55 -107 249 17 636 407 91 91
210 216 264 276 54 61 103 111 107 113 5 2 -5 -27 -22 -65 -78 -173 -189 -477
-189 -518 0 -8 6 -15 14 -15 9 0 30 40 55 105 23 58 60 153 83 213 22 59 70
169 105 246 67 148 75 176 44 176 -26 0 -39 -13 -201 -195 -181 -203 -552
-573 -650 -647 -89 -67 -166 -109 -185 -102 -33 13 -19 137 31 272 41 110 61
154 227 517 211 462 277 653 248 722 -23 56 -75 66 -161 30z"/>
<path d="M6430 5153 c-339 -32 -580 -92 -815 -203 -90 -42 -122 -64 -109 -73
5 -3 54 16 109 43 246 119 532 189 852 210 292 18 484 -35 450 -125 -17 -43
-165 -116 -468 -228 -208 -78 -528 -181 -535 -174 -3 3 24 62 60 132 60 115
78 165 59 165 -19 -1 -35 -25 -112 -171 l-81 -157 -58 -23 c-31 -12 -60 -28
-64 -33 -9 -13 19 -36 44 -36 10 0 18 -6 18 -13 0 -8 -39 -97 -86 -198 -110
-236 -108 -229 -86 -229 13 0 46 58 127 220 l108 220 66 0 c93 0 264 -25 341
-49 170 -54 191 -115 77 -226 -72 -69 -190 -142 -321 -196 -90 -37 -92 -37
-301 -49 -384 -21 -609 -64 -592 -113 23 -72 396 -34 742 75 l99 31 319 -6
c268 -5 322 -8 336 -21 53 -48 209 -63 284 -27 30 15 63 21 108 21 65 0 331
-21 506 -40 116 -13 140 -13 128 -1 -12 12 -121 25 -429 51 -132 11 -242 22
-244 25 -3 2 0 11 6 18 6 7 31 65 55 127 l42 114 58 33 c31 19 57 38 57 43 0
14 -7 13 -50 -12 -21 -13 -41 -20 -44 -17 -4 3 1 22 9 42 19 46 19 77 0 77 -8
0 -19 -10 -26 -22 -16 -33 -91 -108 -106 -108 -17 0 -16 48 2 80 18 32 18 40
0 40 -31 0 -68 -89 -54 -129 8 -19 15 -22 42 -19 17 3 40 8 50 13 9 4 17 3 17
-1 0 -5 -77 -46 -170 -92 -125 -60 -183 -95 -218 -128 l-47 -46 -274 9 -273 8
98 50 c184 93 314 211 314 286 0 38 -49 92 -102 112 -83 31 -199 56 -285 62
-162 11 -193 16 -193 30 0 8 5 17 11 20 6 4 115 42 243 85 464 156 750 275
814 339 84 84 0 157 -209 181 -79 9 -222 11 -299 3z m565 -1005 c-10 -44 -49
-141 -69 -170 -15 -22 -21 -22 -134 -20 -118 3 -152 8 -152 20 1 16 114 88
225 143 65 32 123 59 128 59 5 0 5 -15 2 -32z m-155 -218 c42 -1 44 -2 26 -15
-26 -19 -126 -20 -171 -1 -53 22 -42 30 33 23 37 -4 87 -7 112 -7z m-1104 -16
c-126 -46 -532 -94 -550 -65 -20 32 254 78 479 79 106 1 109 0 71 -14z"/>
<path d="M4172 4476 c-55 -118 -104 -226 -108 -241 -6 -24 -4 -25 19 -20 14 4
28 2 31 -4 12 -18 62 -12 90 10 50 40 81 130 57 168 -6 9 -21 12 -45 9 -20 -2
-36 -2 -36 0 0 1 7 17 17 35 13 25 70 153 110 245 3 7 -2 12 -14 12 -15 0 -41
-46 -121 -214z m54 -137 c-13 -66 -77 -129 -97 -98 -19 29 13 93 61 122 32 20
43 12 36 -24z"/>
<path d="M3802 4299 c-30 -55 -41 -84 -34 -91 7 -7 16 -3 29 13 71 91 143 143
143 104 0 -22 28 -18 35 5 10 33 -3 43 -50 35 -26 -3 -46 -2 -50 5 -14 23 -32
6 -73 -71z"/>
<path d="M6615 4298 c-34 -60 -43 -84 -34 -92 8 -8 17 -3 33 19 61 86 136 141
136 99 0 -9 7 -14 18 -12 11 2 17 12 17 28 0 23 -4 25 -47 25 -25 0 -49 3 -54
8 -15 15 -24 5 -69 -75z"/>
<path d="M7329 4363 c-33 -20 -59 -63 -59 -97 0 -76 156 -73 249 5 38 31 14
36 -37 7 -98 -55 -172 -57 -172 -5 0 31 54 81 88 83 15 0 27 5 27 10 0 16 -69
14 -96 -3z"/>
<path d="M4442 4340 c-49 -35 -84 -86 -80 -115 4 -29 51 -31 95 -5 31 18 39
19 48 8 26 -36 78 -28 128 20 51 49 25 60 -30 12 -47 -42 -67 -40 -59 4 4 21
2 37 -4 41 -11 7 -21 1 -84 -49 -45 -36 -55 -28 -26 19 27 43 66 65 104 58 23
-5 27 -3 24 13 -6 33 -66 30 -116 -6z"/>
<path d="M4757 4318 c-33 -54 -57 -100 -57 -109 0 -20 31 -7 75 31 25 22 55
45 65 50 18 10 19 8 14 -34 -6 -38 -4 -45 14 -50 22 -7 91 22 131 55 37 31 17
34 -35 5 -55 -31 -80 -34 -69 -8 30 69 9 97 -51 68 -42 -20 -44 -20 -44 -1 0
23 -28 18 -43 -7z"/>
</g>
</svg>
